<?xml version="1.0" standalone="no"?>
<!DOCTYPE svg PUBLIC "-//W3C//DTD SVG 20010904//EN"
 "http://www.w3.org/TR/2001/REC-SVG-20010904/DTD/svg10.dtd">
<svg version="1.0" xmlns="http://www.w3.org/2000/svg"
 width="920.000000pt" height="920.000000pt" viewBox="0 0 920.000000 920.000000"
 preserveAspectRatio="xMidYMid meet">

<g transform="translate(0.000000,920.000000) scale(0.100000,-0.100000)"
fill="#000000" stroke="none">
<path d="M6333 5481 c-356 -57 -653 -331 -732 -673 -50 -217 -30 -401 64 -593
112 -230 308 -395 560 -471 79 -24 107 -27 235 -28 121 -1 159 3 230 22 278
75 497 260 605 509 l32 72 23 -57 c80 -200 248 -377 443 -467 136 -63 214 -79
377 -79 122 0 158 4 230 24 261 73 453 229 575 469 94 187 112 471 41 679 -79
231 -258 428 -477 525 -124 54 -213 72 -369 71 -128 -1 -156 -4 -235 -28 -264
-80 -473 -263 -581 -510 l-28 -65 -43 86 c-123 245 -332 419 -594 493 -83 24
-269 34 -356 21z m492 -442 c106 -21 152 -77 162 -200 l6 -70 -133 3 -134 3
-8 32 c-13 49 -55 56 -278 50 -212 -7 -235 -11 -257 -43 -21 -33 -9 -70 30
-94 30 -19 51 -20 305 -20 367 0 434 -15 481 -108 25 -50 34 -94 33 -172 -1
-171 -61 -235 -242 -261 -116 -16 -670 -16 -730 1 -100 27 -149 96 -150 213
l0 67 140 0 140 0 0 -32 c0 -17 7 -40 17 -50 15 -16 35 -18 232 -18 218 0 287
8 302 32 14 22 10 86 -7 102 -19 20 12 17 -305 21 -324 3 -399 15 -458 74 -46
46 -61 96 -61 202 0 112 14 156 61 201 52 49 122 69 274 77 167 8 520 3 580
-10z m1528 11 c2 -3 24 -43 49 -90 25 -47 108 -197 183 -335 239 -434 255
-464 255 -472 0 -9 -295 -11 -303 -3 -3 3 -23 39 -46 80 l-40 75 -285 1 -284
0 -44 -80 -45 -81 -151 0 c-84 0 -152 2 -152 6 0 4 20 42 44 85 24 44 126 230
226 414 100 184 193 351 205 370 l22 35 181 0 c99 0 183 -3 185 -5z"/>
<path d="M8124 4753 c-26 -48 -67 -124 -91 -167 -24 -43 -42 -81 -40 -83 2 -2
85 -2 184 -1 l180 3 -88 164 c-49 91 -91 166 -93 168 -2 3 -26 -35 -52 -84z"/>
<path d="M130 4600 l0 -450 135 0 135 0 0 175 0 175 71 0 72 0 131 -118 c72
-64 161 -143 197 -175 l67 -57 194 2 194 3 -273 220 c-149 121 -272 222 -272
225 0 3 46 45 102 94 95 83 285 250 366 323 l36 32 -190 0 -190 0 -179 -164
-179 -165 -73 0 -74 0 0 165 0 165 -135 0 -135 0 0 -450z"/>
<path d="M1685 5036 c-92 -15 -175 -53 -202 -93 -48 -68 -57 -111 -61 -288 -6
-233 15 -353 71 -413 12 -13 49 -38 82 -56 l60 -31 400 0 400 0 45 24 c82 42
118 91 147 196 21 75 27 246 14 370 -19 175 -62 244 -178 283 -65 21 -656 28
-778 8z m608 -217 c64 -17 72 -41 72 -214 0 -176 -10 -207 -73 -224 -48 -14
-466 -14 -515 0 -64 17 -72 41 -72 214 0 164 9 199 55 222 32 16 477 18 533 2z"/>
<path d="M2850 4600 l0 -450 140 0 140 0 0 115 0 115 262 -2 262 -3 23 -34
c19 -28 23 -47 23 -112 l0 -79 140 0 140 0 0 93 c0 160 -34 223 -125 233 -27
3 -66 8 -85 11 -33 5 -30 7 33 19 143 27 172 70 172 249 0 108 -2 125 -25 170
-31 61 -86 101 -159 115 -31 6 -242 10 -497 10 l-444 0 0 -450z m817 214 c12
-3 27 -18 33 -34 13 -31 17 -130 6 -148 -15 -25 -89 -32 -328 -32 l-248 0 0
110 0 110 258 0 c141 0 267 -3 279 -6z"/>
<path d="M4210 4600 l0 -451 503 3 502 3 43 24 c54 32 108 100 128 165 22 69
31 332 14 433 -15 94 -33 139 -73 181 -82 86 -123 92 -669 92 l-448 0 0 -450z
m839 207 c63 -22 76 -52 79 -191 5 -163 -6 -201 -61 -227 -38 -17 -68 -19
-314 -19 l-273 0 0 225 0 225 268 -1 c180 0 278 -4 301 -12z"/>
</g>
</svg>
